<?xml version="1.0" encoding="utf-8"?>
<!-- Generator: Adobe Illustrator 21.1.0, SVG Export Plug-In . SVG Version: 6.00 Build 0)  -->
<svg version="1.1" id="Layer_1" xmlns="http://www.w3.org/2000/svg" xmlns:xlink="http://www.w3.org/1999/xlink" x="0px" y="0px"
	 viewBox="0 0 421 131.2" style="enable-background:new 0 0 421 131.2;" xml:space="preserve">
<style type="text/css">
	.st0{fill:#D4145A;}
	.st1{fill:#EAEC00;}
	.st2{fill:#DACD00;}
	.st3{fill:#C7B299;}
	.st4{fill:#808080;}
	.st5{fill:#FFF6B8;}
</style>
<g>
	<path class="st0" d="M104.1,131.2H37.6C16.9,131.2,0,114.3,0,93.6l0-56C0,16.9,16.9,0,37.6,0l66.4,0c20.7,0,37.6,16.9,37.6,37.6v56
		C141.7,114.3,124.8,131.2,104.1,131.2z"/>
	<rect x="82.2" class="st1" width="272.9" height="88.2"/>
	<rect x="82.2" y="67.3" class="st2" width="272.9" height="64"/>
	<polygon class="st3" points="421,68.7 397,91.4 355.1,131.2 355.1,0 397,43.7 	"/>
	<rect x="34.2" class="st4" width="48" height="131.2"/>
	<polygon class="st4" points="421,68.7 397,91.4 397,43.7 	"/>
	<g>
		<path class="st5" d="M132.2,78.6c1.4,0,2.6,0.2,3.6,0.5c1,0.3,1.9,0.8,2.5,1.4c0.7,0.6,1.2,1.3,1.5,2.1c0.3,0.8,0.5,1.8,0.5,2.8
			c0,1-0.2,1.9-0.5,2.8c-0.4,0.8-0.9,1.6-1.6,2.2c-0.7,0.6-1.5,1.1-2.5,1.4c-1,0.3-2.2,0.5-3.5,0.5h-3.5v8.2h-2.9V78.6H132.2z
			 M132.2,89.9c0.8,0,1.6-0.1,2.2-0.3c0.6-0.2,1.2-0.5,1.6-0.9c0.4-0.4,0.8-0.9,1-1.4c0.2-0.6,0.3-1.2,0.3-1.8
			c0-1.4-0.4-2.5-1.3-3.3c-0.9-0.8-2.2-1.2-3.9-1.2h-3.5v9H132.2z"/>
		<path class="st5" d="M157.5,98l0,2.4H144V78.6h13.4V81H147v7.2h8.5v2.3H147V98H157.5z"/>
		<path class="st5" d="M179.3,78.6v21.8h-1.5c-0.2,0-0.4,0-0.6-0.1c-0.2-0.1-0.3-0.2-0.5-0.4l-12.6-16.4c0,0.3,0,0.5,0,0.7
			c0,0.2,0,0.5,0,0.7v15.6h-2.6V78.6h1.5c0.1,0,0.2,0,0.3,0c0.1,0,0.2,0,0.2,0.1c0.1,0,0.1,0.1,0.2,0.2s0.1,0.1,0.2,0.3l12.6,16.4
			c0-0.3,0-0.5-0.1-0.8c0-0.2,0-0.5,0-0.7V78.6H179.3z"/>
		<path class="st5" d="M200.2,95.9c0.2,0,0.3,0.1,0.4,0.2l1.2,1.3c-0.9,1-2,1.8-3.3,2.4c-1.3,0.6-2.8,0.9-4.6,0.9
			c-1.6,0-3-0.3-4.3-0.8c-1.3-0.5-2.4-1.3-3.3-2.3c-0.9-1-1.6-2.2-2.1-3.5c-0.5-1.4-0.7-2.9-0.7-4.5c0-1.6,0.3-3.2,0.8-4.5
			c0.5-1.4,1.2-2.5,2.2-3.5c0.9-1,2.1-1.7,3.4-2.3c1.3-0.5,2.8-0.8,4.3-0.8c1.6,0,2.9,0.2,4.1,0.7c1.2,0.5,2.2,1.2,3.1,2l-1,1.4
			c-0.1,0.1-0.1,0.2-0.2,0.3c-0.1,0.1-0.2,0.1-0.4,0.1c-0.2,0-0.4-0.1-0.7-0.3c-0.3-0.2-0.6-0.4-1-0.7c-0.4-0.2-1-0.5-1.6-0.7
			c-0.6-0.2-1.4-0.3-2.4-0.3c-1.1,0-2.2,0.2-3.1,0.6c-0.9,0.4-1.7,1-2.4,1.7c-0.7,0.7-1.2,1.6-1.6,2.7s-0.6,2.3-0.6,3.6
			c0,1.4,0.2,2.6,0.6,3.6c0.4,1.1,0.9,2,1.6,2.7c0.7,0.7,1.5,1.3,2.4,1.7c0.9,0.4,1.9,0.6,3,0.6c0.6,0,1.2,0,1.8-0.1
			c0.5-0.1,1-0.2,1.4-0.4c0.4-0.2,0.9-0.4,1.2-0.6c0.4-0.2,0.8-0.5,1.1-0.9C199.9,96,200,95.9,200.2,95.9z"/>
		<path class="st5" d="M208.2,100.4h-3V78.6h3V100.4z"/>
		<path class="st5" d="M226.1,97.9v2.5h-12.4V78.6h2.9v19.3H226.1z"/>
		<path class="st5" d="M254.9,100.4h-2.6c-0.3,0-0.5,0-0.7-0.1c-0.2-0.1-0.4-0.2-0.6-0.4l-2.2-2.2c-1,0.9-2.1,1.7-3.3,2.2
			c-1.2,0.5-2.6,0.8-4.1,0.8c-0.8,0-1.6-0.1-2.4-0.4s-1.5-0.7-2.1-1.2c-0.6-0.5-1.1-1.2-1.5-1.9c-0.4-0.8-0.6-1.6-0.6-2.5
			c0-0.7,0.1-1.4,0.4-2c0.2-0.6,0.6-1.2,1-1.8c0.4-0.5,0.9-1,1.5-1.4c0.6-0.4,1.2-0.8,1.9-1.1c-0.6-0.8-1.1-1.6-1.4-2.3
			c-0.3-0.7-0.4-1.5-0.4-2.3c0-0.7,0.1-1.4,0.4-2.1c0.3-0.6,0.7-1.2,1.2-1.7c0.5-0.5,1.1-0.9,1.9-1.1c0.7-0.3,1.5-0.4,2.4-0.4
			c0.8,0,1.5,0.1,2.2,0.4c0.7,0.3,1.2,0.6,1.7,1c0.5,0.4,0.9,0.9,1.1,1.5s0.4,1.1,0.5,1.8l-1.7,0.3c-0.3,0.1-0.6-0.1-0.7-0.5
			c-0.1-0.3-0.2-0.5-0.3-0.8c-0.2-0.3-0.4-0.5-0.6-0.8c-0.2-0.2-0.5-0.4-0.9-0.6c-0.4-0.2-0.8-0.2-1.2-0.2c-0.5,0-1,0.1-1.4,0.2
			c-0.4,0.2-0.8,0.4-1.1,0.7c-0.3,0.3-0.5,0.6-0.7,1c-0.2,0.4-0.2,0.8-0.2,1.3c0,0.4,0,0.7,0.1,1c0.1,0.3,0.2,0.7,0.4,1
			c0.2,0.3,0.4,0.7,0.7,1c0.3,0.3,0.6,0.7,1,1.1l6.3,6.4c0.4-0.7,0.7-1.4,0.9-2.2c0.2-0.7,0.4-1.5,0.5-2.2c0-0.2,0.1-0.3,0.2-0.5
			c0.1-0.1,0.2-0.2,0.4-0.2h1.7c0,1.2-0.2,2.3-0.5,3.4c-0.4,1.1-0.9,2.2-1.5,3.2L254.9,100.4z M240.9,89.7c-1.1,0.6-1.9,1.3-2.4,2.1
			c-0.5,0.8-0.8,1.7-0.8,2.7c0,0.7,0.1,1.2,0.4,1.7c0.2,0.5,0.6,0.9,1,1.3c0.4,0.3,0.8,0.6,1.4,0.8c0.5,0.2,1,0.3,1.6,0.3
			c1.1,0,2.2-0.2,3.1-0.6c0.9-0.4,1.7-1,2.4-1.7L240.9,89.7z"/>
		<path class="st5" d="M281.1,95.9c0.2,0,0.3,0.1,0.4,0.2l1.2,1.3c-0.9,1-2,1.8-3.3,2.4c-1.3,0.6-2.8,0.9-4.6,0.9
			c-1.6,0-3-0.3-4.3-0.8c-1.3-0.5-2.4-1.3-3.3-2.3c-0.9-1-1.6-2.2-2.1-3.5c-0.5-1.4-0.7-2.9-0.7-4.5c0-1.6,0.3-3.2,0.8-4.5
			c0.5-1.4,1.2-2.5,2.2-3.5c0.9-1,2.1-1.7,3.4-2.3c1.3-0.5,2.8-0.8,4.3-0.8c1.6,0,2.9,0.2,4.1,0.7c1.2,0.5,2.2,1.2,3.1,2l-1,1.4
			c-0.1,0.1-0.1,0.2-0.2,0.3c-0.1,0.1-0.2,0.1-0.4,0.1c-0.2,0-0.4-0.1-0.7-0.3c-0.3-0.2-0.6-0.4-1-0.7c-0.4-0.2-1-0.5-1.6-0.7
			c-0.6-0.2-1.4-0.3-2.4-0.3c-1.1,0-2.2,0.2-3.1,0.6c-0.9,0.4-1.7,1-2.4,1.7c-0.7,0.7-1.2,1.6-1.6,2.7c-0.4,1.1-0.6,2.3-0.6,3.6
			c0,1.4,0.2,2.6,0.6,3.6c0.4,1.1,0.9,2,1.6,2.7c0.7,0.7,1.5,1.3,2.4,1.7c0.9,0.4,1.9,0.6,3,0.6c0.6,0,1.2,0,1.8-0.1
			c0.5-0.1,1-0.2,1.4-0.4c0.4-0.2,0.9-0.4,1.2-0.6c0.4-0.2,0.8-0.5,1.1-0.9C280.8,96,280.9,95.9,281.1,95.9z"/>
		<path class="st5" d="M305.9,89.5c0,1.6-0.3,3.1-0.8,4.5c-0.5,1.4-1.2,2.5-2.2,3.5c-0.9,1-2.1,1.7-3.4,2.3
			c-1.3,0.5-2.8,0.8-4.4,0.8c-1.6,0-3.1-0.3-4.4-0.8c-1.3-0.5-2.5-1.3-3.4-2.3c-0.9-1-1.7-2.2-2.2-3.5c-0.5-1.4-0.8-2.9-0.8-4.5
			c0-1.6,0.3-3.1,0.8-4.5c0.5-1.4,1.2-2.5,2.2-3.5c0.9-1,2.1-1.8,3.4-2.3c1.3-0.5,2.8-0.8,4.4-0.8c1.6,0,3.1,0.3,4.4,0.8
			c1.3,0.5,2.5,1.3,3.4,2.3c0.9,1,1.7,2.2,2.2,3.5C305.6,86.4,305.9,87.9,305.9,89.5z M302.8,89.5c0-1.3-0.2-2.5-0.5-3.6
			c-0.4-1.1-0.9-2-1.6-2.7c-0.7-0.7-1.5-1.3-2.4-1.7s-2-0.6-3.2-0.6c-1.2,0-2.2,0.2-3.2,0.6c-1,0.4-1.8,1-2.4,1.7
			c-0.7,0.7-1.2,1.6-1.6,2.7c-0.4,1.1-0.5,2.3-0.5,3.6s0.2,2.5,0.5,3.6c0.4,1.1,0.9,2,1.6,2.7c0.7,0.7,1.5,1.3,2.4,1.7
			c1,0.4,2,0.6,3.2,0.6c1.2,0,2.2-0.2,3.2-0.6c1-0.4,1.8-1,2.4-1.7c0.7-0.7,1.2-1.6,1.6-2.7C302.7,92,302.8,90.8,302.8,89.5z"/>
		<path class="st5" d="M308.3,98.7c0-0.3,0-0.5,0.1-0.7c0.1-0.2,0.2-0.4,0.4-0.6c0.2-0.2,0.4-0.3,0.6-0.4c0.2-0.1,0.5-0.2,0.7-0.2
			s0.5,0.1,0.7,0.2c0.2,0.1,0.4,0.2,0.6,0.4c0.2,0.2,0.3,0.4,0.4,0.6c0.1,0.2,0.2,0.5,0.2,0.7c0,0.3-0.1,0.5-0.2,0.8
			c-0.1,0.2-0.2,0.4-0.4,0.6c-0.2,0.2-0.4,0.3-0.6,0.4c-0.2,0.1-0.5,0.1-0.7,0.1s-0.5,0-0.7-0.1c-0.2-0.1-0.4-0.2-0.6-0.4
			c-0.2-0.2-0.3-0.4-0.4-0.6C308.3,99.3,308.3,99,308.3,98.7z"/>
	</g>
</g>
</svg>
